<?xml version="1.0" encoding="UTF-8"?><svg xmlns="http://www.w3.org/2000/svg" xmlns:xlink="http://www.w3.org/1999/xlink" width="375" zoomAndPan="magnify" viewBox="0 0 375 374.999991" height="374.999991" preserveAspectRatio="xMidYMid meet" version="1.0"><defs><filter x="0%" y="0%" width="100%" xmlns:xlink="http://www.w3.org/1999/xlink" xlink:type="simple" xlink:actuate="onLoad" height="100%" id="filter-remove-color" xlink:show="other"><feColorMatrix values="0 0 0 0 1 0 0 0 0 1 0 0 0 0 1 0 0 0 1 0" color-interpolation-filters="sRGB"/></filter><mask id="mask-0"><g filter="url(#filter-remove-color)"><rect x="-37.5" width="450" fill="rgb(0%, 0%, 0%)" y="-37.499999" height="449.999989" fill-opacity="0.1294"/></g></mask><clipPath id="clip-0"><path d="M 0.558594 2 L 361 2 L 361 269 L 0.558594 269 Z M 0.558594 2 " clip-rule="nonzero"/></clipPath><clipPath id="clip-1"><path d="M 325.417969 87.433594 C 327.84375 80.679688 329.058594 73.234375 328.886719 65.617188 C 328.539062 31.851562 301.308594 4.148438 267.835938 2.589844 C 248.0625 1.722656 230.027344 10.035156 217.714844 23.367188 C 206.441406 35.660156 187.710938 37.566406 173.660156 28.734375 C 154.757812 16.785156 132.035156 10.378906 107.929688 11.59375 C 50.347656 14.363281 3.695312 60.941406 0.917969 118.425781 C -2.203125 183.011719 49.480469 236.339844 113.480469 236.339844 C 132.035156 236.339844 149.726562 231.839844 165.164062 223.875 C 180.425781 215.910156 198.980469 220.066406 209.214844 233.917969 C 227.597656 258.851562 259.511719 273.222656 294.023438 266.296875 C 323.683594 260.410156 353.339844 230.628906 359.234375 200.847656 C 365.132812 170.199219 354.378906 141.628906 334.433594 122.929688 C 324.722656 113.925781 321.082031 99.898438 325.417969 87.433594 Z M 226.386719 117.214844 C 226.210938 117.386719 226.210938 117.386719 226.039062 117.558594 C 226.039062 117.386719 226.039062 117.214844 226.039062 116.867188 C 226.039062 117.039062 226.210938 117.214844 226.386719 117.214844 Z M 226.386719 117.214844 " clip-rule="nonzero"/></clipPath><clipPath id="clip-2"><rect x="0" width="362" y="0" height="270"/></clipPath><clipPath id="clip-3"><path d="M 55 51 L 346 51 L 346 337.28125 L 55 337.28125 Z M 55 51 " clip-rule="nonzero"/></clipPath></defs><g mask="url(#mask-0)"><g transform="matrix(1, 0, 0, 1, 10, 80)"><g id="source-5" clip-path="url(#clip-2)"><g clip-path="url(#clip-0)"><g clip-path="url(#clip-1)"><path fill="rgb(97.599792%, 58.799744%, 41.598511%)" d="M 0.558594 1.722656 L 0.558594 269.441406 L 361.519531 269.441406 L 361.519531 1.722656 Z M 0.558594 1.722656 " fill-opacity="1" fill-rule="nonzero"/></g></g></g></g></g><g clip-path="url(#clip-3)"><path fill="rgb(97.648621%, 58.81958%, 41.569519%)" d="M 344.449219 183.734375 L 317.34375 145.949219 C 316.351562 144.5625 314.941406 143.617188 313.390625 143.164062 L 313.390625 143.152344 L 241.480469 121.96875 C 250.921875 109.910156 258.492188 96.507812 258.492188 84.371094 C 258.492188 69.058594 249.640625 56.597656 235.925781 52.628906 C 223.367188 48.976562 210.253906 52.984375 200.496094 62.878906 C 190.609375 52.957031 177.414062 48.996094 164.933594 52.65625 C 151.339844 56.648438 142.566406 69.097656 142.566406 84.371094 C 142.566406 96.507812 150.140625 109.910156 159.578125 121.96875 L 87.671875 143.152344 L 87.671875 143.164062 C 86.121094 143.617188 84.710938 144.5625 83.714844 145.949219 L 56.609375 183.734375 C 53.828125 187.617188 55.367188 193.082031 59.78125 194.929688 L 82.324219 204.386719 L 82.324219 291.011719 C 82.324219 294.164062 84.320312 296.984375 87.292969 298.035156 L 198.042969 337.03125 C 199.628906 337.585938 201.371094 337.597656 203 337.03125 L 313.746094 298.035156 C 316.726562 296.984375 318.714844 294.164062 318.714844 291.011719 L 318.714844 204.386719 L 341.261719 194.929688 C 345.691406 193.074219 347.222656 187.605469 344.449219 183.734375 Z M 169.148438 66.925781 C 176.945312 64.644531 187.179688 67.800781 194.273438 78.792969 C 197.214844 83.359375 203.921875 83.328125 206.835938 78.746094 C 214.367188 66.867188 224.996094 64.960938 231.785156 66.917969 C 239.175781 69.058594 243.589844 75.578125 243.589844 84.359375 C 243.589844 102.210938 215.796875 129.578125 200.535156 142.578125 C 185.273438 129.578125 157.480469 102.210938 157.480469 84.359375 C 157.480469 75.589844 161.832031 69.070312 169.148438 66.925781 Z M 195.90625 158.054688 C 198.605469 160.210938 202.453125 160.210938 205.164062 158.054688 C 207.679688 156.070312 219.15625 146.753906 230.820312 134.339844 L 287.078125 150.910156 L 200.535156 181.382812 L 113.992188 150.910156 L 170.25 134.339844 C 181.914062 146.753906 193.390625 156.070312 195.90625 158.054688 Z M 92.589844 159.15625 L 188.589844 192.953125 L 166.214844 223.417969 L 74.1875 184.808594 Z M 97.238281 210.636719 L 165.859375 239.421875 C 169.039062 240.753906 172.714844 239.738281 174.75 236.960938 L 193.082031 212.007812 L 193.082031 319.488281 L 97.238281 285.742188 Z M 303.832031 285.742188 L 207.988281 319.488281 L 207.988281 212.007812 L 226.320312 236.960938 C 228.355469 239.730469 232.03125 240.753906 235.210938 239.421875 L 303.832031 210.636719 Z M 234.863281 223.425781 L 212.488281 192.964844 L 308.492188 159.167969 L 326.902344 184.828125 Z M 234.863281 223.425781 " fill-opacity="1" fill-rule="nonzero"/></g><path stroke-linecap="round" transform="matrix(-9.044291, -15.413101, 15.524594, -9.109714, 60.73328, 77.240035)" fill="none" stroke-linejoin="miter" d="M 0.499925 -0.0000564441 L 1.766516 0.0000911191 " stroke="rgb(97.648621%, 58.81958%, 41.569519%)" stroke-width="1" stroke-opacity="1" stroke-miterlimit="4"/><path stroke-linecap="round" transform="matrix(8.729423, -15.59359, 15.70639, 8.792568, 321.693411, 77.324249)" fill="none" stroke-linejoin="miter" d="M 0.500018 0.0000198968 L 1.766523 -0.0000541883 " stroke="rgb(97.648621%, 58.81958%, 41.569519%)" stroke-width="1" stroke-opacity="1" stroke-miterlimit="4"/><path stroke-linecap="round" transform="matrix(0.000000000000001094, -17.870726, 17.999999, 0.000000000000001102, 196.497472, 40.795476)" fill="none" stroke-linejoin="miter" d="M 0.500041 -0.000076547 L 1.766515 -0.000076547 " stroke="rgb(97.648621%, 58.81958%, 41.569519%)" stroke-width="1" stroke-opacity="1" stroke-miterlimit="4"/></svg>